<svg width="174" height="24" viewBox="0 0 174 24" fill="none" xmlns="http://www.w3.org/2000/svg">
<path fill-rule="evenodd" clip-rule="evenodd" d="M41.8674 16.7716C43.8426 16.7851 45.4326 18.3981 45.419 20.3733C45.4054 22.3485 43.7924 23.9384 41.8173 23.9249C39.8421 23.9112 38.2522 22.2983 38.2657 20.3232C38.2792 18.3479 39.8921 16.758 41.8674 16.7716Z" fill="white"/>
<path fill-rule="evenodd" clip-rule="evenodd" d="M13.2906 14.8142C13.7479 15.5585 14.1874 16.447 14.5998 17.4513L14.6039 17.4501C15.8368 20.4287 20.1673 19.8179 21.0453 16.9418C22.1028 12.5217 23.6144 9.39178 25.3506 7.58256C26.2671 6.62731 27.2141 6.08871 28.1431 5.97593C29.0358 5.86838 30.0181 6.16075 31.0412 6.86016C32.8671 8.10981 33.5655 11.1425 35.2306 14.7453C37.2069 19.0517 43.6346 15.901 41.3065 11.8023C39.2363 7.31959 36.4125 4.45064 33.8787 2.71667C31.8241 1.31145 29.6789 0.746652 27.5502 1.00351C25.4591 1.25615 23.4871 2.30221 21.7426 4.12088C20.0273 5.90913 18.5125 8.48979 17.3266 11.8305C16.7525 10.9566 16.1344 10.1947 15.4788 9.56612C14.1718 8.31239 12.707 7.56583 11.1107 7.45319C9.48112 7.3372 7.84945 7.87493 6.26683 9.19138C4.78127 10.4274 3.30401 12.4297 1.88846 15.3382C1.58357 15.9646 1.28917 16.6119 1.00626 17.281L1.00306 17.28C0.732669 17.9211 0.449762 18.6362 0.156522 19.4254C-0.323722 20.7231 0.338141 22.1648 1.63582 22.6461C2.93335 23.1273 4.37612 22.4643 4.85636 21.1668C5.09867 20.5152 5.35436 19.8711 5.62272 19.2365V19.227C5.88787 18.5985 6.14356 18.0337 6.38893 17.5306C7.47151 15.3049 8.50826 13.8516 9.4801 13.0437C10.4792 12.2126 11.0942 12.2888 12.0191 13.1762C12.3584 13.5009 12.6913 13.908 13.016 14.3892C13.108 14.523 13.1998 14.6649 13.2906 14.8142Z" fill="white"/>
<path fill-rule="evenodd" clip-rule="evenodd" d="M92.9538 17.6386H92.9378H89.1773H85.283H81.3886C81.6113 18.2687 81.9853 18.8203 82.5296 19.2889C83.3591 20.002 84.2963 20.3469 85.3921 20.3323C86.4763 20.3177 87.3335 20.0107 88.0044 19.3995H92.296C91.7372 20.6394 90.8946 21.6857 89.758 22.4876C88.4366 23.4204 86.9667 23.8992 85.3499 23.9225C83.2499 23.953 81.4308 23.1687 79.9305 21.7046C78.398 20.2101 77.5743 18.3953 77.535 16.2517C77.4943 14.0251 78.2918 12.0794 79.881 10.5149C81.4832 8.93888 83.4158 8.13265 85.6701 8.27235C87.7046 8.39896 89.432 9.25031 90.8364 10.7187C92.184 12.1274 92.9553 13.817 92.9553 15.7744C92.9538 16.4016 92.9538 17.0797 92.9538 17.6386ZM163.62 10.2021C164.801 8.89522 166.348 8.20832 168.253 8.36549C169.834 8.49647 171.222 9.08295 172.319 10.2355C173.517 11.4929 174 13.1155 174 14.8299V23.5994H170.34V14.6232C170.34 13.8752 170.142 13.1854 169.669 12.6004C169.259 12.0925 168.733 11.8611 168.084 11.8611C167.352 11.8611 166.734 12.0896 166.185 12.5742C165.682 13.021 165.461 13.5623 165.461 14.2332V23.6009H161.779V14.2332C161.779 13.5521 161.54 13.0268 161.031 12.5742C160.491 12.0954 159.879 11.8611 159.155 11.8611C158.503 11.8611 158.002 12.0925 157.593 12.6004C157.116 13.1927 156.946 13.8694 156.946 14.6232V23.5994H153.286V14.8299C153.286 13.1199 153.751 11.5031 154.94 10.2399C156.027 9.0844 157.413 8.49502 158.987 8.36549C160.891 8.20832 162.436 8.89522 163.62 10.2021ZM141.728 10.2021C142.909 8.89522 144.456 8.20832 146.361 8.36549C147.942 8.49647 149.33 9.08295 150.427 10.2355C151.625 11.4929 152.108 13.1155 152.108 14.8299V23.5994H148.448V14.6232C148.448 13.8752 148.25 13.1854 147.777 12.6004C147.367 12.0925 146.842 11.8611 146.192 11.8611C145.46 11.8611 144.842 12.0896 144.293 12.5742C143.788 13.021 143.569 13.5623 143.569 14.2332V23.6009H139.887V14.2332C139.887 13.5521 139.648 13.0268 139.139 12.5742C138.599 12.0954 137.988 11.8611 137.263 11.8611C136.611 11.8611 136.11 12.0925 135.701 12.6004C135.224 13.1927 135.054 13.8694 135.054 14.6232V23.5994H131.395V14.8299C131.395 13.1199 131.861 11.5031 133.05 10.2399C134.137 9.0844 135.522 8.49502 137.097 8.36549C138.999 8.20832 140.545 8.89522 141.728 10.2021ZM112.623 8.63909H116.672H119.628H120.286V17.2471C120.286 18.1217 120.584 18.8305 121.208 19.446C121.821 20.05 122.532 20.3556 123.393 20.3556C124.253 20.3556 124.942 20.05 125.554 19.446C126.175 18.8334 126.5 18.1232 126.5 17.2471V8.63909H130.113V17.0404C130.113 18.9149 129.505 20.5884 128.196 21.9389C126.895 23.2822 125.26 23.9225 123.393 23.9225C121.521 23.9225 119.875 23.2909 118.565 21.9389C117.261 20.5943 116.672 18.9032 116.672 17.0404V13.1767L118.624 12.1143H116.672H112.623V18.5903C112.623 20.0645 113.271 20.5855 114.718 20.5855H116.361V23.8759H114.718C111.4 23.8759 109.01 22.4396 109.01 18.8887V5.6543H112.623V8.63909ZM107.62 15.1995V23.5994H104.007V15.0147C104.007 14.1357 103.675 13.4299 103.056 12.8114C102.445 12.2002 101.766 11.8844 100.9 11.8844C100.034 11.8844 99.309 12.1987 98.6964 12.8114C98.0764 13.4313 97.7693 14.1372 97.7693 15.0147V23.5994H94.1559V19.3995V17.6386V15.1995C94.1559 13.3237 94.7584 11.6646 96.0754 10.3199C97.391 8.97672 99.0281 8.34076 100.898 8.34076C102.761 8.34076 104.392 8.98836 105.699 10.3199C107.018 11.6646 107.62 13.3222 107.62 15.1995ZM66.1445 10.2021C67.3262 8.89522 68.8732 8.20832 70.7781 8.36549C72.3586 8.49647 73.7469 9.08295 74.8442 10.2355C76.0419 11.4929 76.5251 13.1155 76.5251 14.8299V23.5994H72.8651V14.6232C72.8651 13.8752 72.6671 13.1854 72.1942 12.6004C71.7852 12.0925 71.2584 11.8611 70.6093 11.8611C69.8773 11.8611 69.2589 12.0896 68.7102 12.5742C68.2052 13.021 67.9855 13.5623 67.9855 14.2332V23.6009H64.3036V14.2332C64.3036 13.5521 64.0649 13.0268 63.5556 12.5742C63.0157 12.0954 62.4044 11.8611 61.6797 11.8611C61.0277 11.8611 60.5271 12.0925 60.1182 12.6004C59.6409 13.1927 59.4706 13.8694 59.4706 14.6232V23.5994H55.8105V14.8299C55.8105 13.1199 56.2762 11.5031 57.4652 10.2399C58.5523 9.0844 59.9377 8.49502 61.5124 8.36549C63.4159 8.20832 64.9614 8.89522 66.1445 10.2021ZM81.5109 14.1866H89.0362C88.7888 13.6773 88.4438 13.2276 87.9869 12.8405C87.2185 12.19 86.3235 11.9018 85.3193 11.8844C84.2978 11.8655 83.394 12.1696 82.5994 12.8099C82.1148 13.1985 81.7597 13.6598 81.5109 14.1866Z" fill="white"/>
</svg>
