<?xml version="1.0" encoding="UTF-8"?> <svg xmlns="http://www.w3.org/2000/svg" xmlns:xlink="http://www.w3.org/1999/xlink" version="1.1" id="Layer_1" x="0px" y="0px" viewBox="0 0 841.89 384" style="enable-background:new 0 0 841.89 384;" xml:space="preserve" width="841.89" height="384"> <style type="text/css"> .st0{fill-rule:evenodd;clip-rule:evenodd;fill:#3168B2;} .st1{fill-rule:evenodd;clip-rule:evenodd;fill:#2CBDBE;} </style> <path class="st0" d="M604.46,170.39c18.92,0.13,34.15,15.58,34.02,34.5c-0.13,18.92-15.58,34.15-34.5,34.02 c-18.92-0.13-34.15-15.58-34.02-34.5C570.09,185.49,585.54,170.26,604.46,170.39"></path> <path class="st1" d="M330.72,151.65c4.38,7.13,8.59,15.64,12.54,25.26l0.04-0.01c11.81,28.53,53.29,22.68,61.7-4.87 c10.13-42.34,24.61-72.32,41.24-89.65c8.78-9.15,17.85-14.31,26.75-15.39c8.55-1.03,17.96,1.77,27.76,8.47 c17.49,11.97,24.18,41.02,40.13,75.53c18.93,41.25,80.5,11.07,58.2-28.19c-19.83-42.94-46.88-70.42-71.15-87.03 c-19.68-13.46-40.23-18.87-60.62-16.41c-20.03,2.42-38.92,12.44-55.63,29.86c-16.43,17.13-30.94,41.85-42.3,73.85 c-5.5-8.37-11.42-15.67-17.7-21.69c-12.52-12.01-26.55-19.16-41.84-20.24c-15.61-1.11-31.24,4.04-46.4,16.65 c-14.23,11.84-28.38,31.02-41.94,58.88c-2.92,6-5.74,12.2-8.45,18.61l-0.03-0.01c-2.59,6.14-5.3,12.99-8.11,20.55 c-4.6,12.43,1.74,26.24,14.17,30.85c12.43,4.61,26.25-1.74,30.85-14.17c2.32-6.24,4.77-12.41,7.34-18.49v-0.09 c2.54-6.02,4.99-11.43,7.34-16.25c10.37-21.32,20.3-35.24,29.61-42.98c9.57-7.96,15.46-7.23,24.32,1.27 c3.25,3.11,6.44,7.01,9.55,11.62C328.97,148.86,329.85,150.22,330.72,151.65"></path> <path class="st0" d="M270.11,322.03H270h-25.84H217.4h-26.76c1.53,4.33,4.1,8.12,7.84,11.34c5.7,4.9,12.14,7.27,19.67,7.17 c7.45-0.1,13.34-2.21,17.95-6.41h29.49c-3.84,8.52-9.63,15.71-17.44,21.22c-9.08,6.41-19.18,9.7-30.29,9.86 c-14.43,0.21-26.93-5.18-37.24-15.24c-10.53-10.27-16.19-22.74-16.46-37.47c-0.28-15.3,5.2-28.67,16.12-39.42 c11.01-10.83,24.29-16.37,39.78-15.41c13.98,0.87,25.85,6.72,35.5,16.81c9.26,9.68,14.56,21.29,14.56,34.74 C270.11,313.53,270.11,318.19,270.11,322.03 M755.69,270.93c8.12-8.98,18.75-13.7,31.84-12.62c10.86,0.9,20.4,4.93,27.94,12.85 c8.23,8.64,11.55,19.79,11.55,31.57v60.26h-25.15v-61.68c0-5.14-1.36-9.88-4.61-13.9c-2.82-3.49-6.43-5.08-10.89-5.08 c-5.03,0-9.28,1.57-13.05,4.9c-3.46,3.07-4.98,6.79-4.98,11.4v64.37h-25.3v-64.37c0-4.68-1.64-8.29-5.14-11.4 c-3.71-3.29-7.91-4.9-12.89-4.9c-4.48,0-7.92,1.59-10.73,5.08c-3.28,4.07-4.45,8.72-4.45,13.9v61.68h-25.15v-60.26 c0-11.75,3.2-22.86,11.37-31.54c7.47-7.94,16.99-11.99,27.81-12.88C736.94,257.23,747.56,261.95,755.69,270.93z M605.26,270.93 c8.12-8.98,18.75-13.7,31.84-12.62c10.86,0.9,20.4,4.93,27.94,12.85c8.23,8.64,11.55,19.79,11.55,31.57v60.26h-25.15v-61.68 c0-5.14-1.36-9.88-4.61-13.9c-2.82-3.49-6.43-5.08-10.89-5.08c-5.03,0-9.28,1.57-13.05,4.9c-3.47,3.07-4.98,6.79-4.98,11.4v64.37 h-25.3v-64.37c0-4.68-1.64-8.29-5.14-11.4c-3.71-3.29-7.91-4.9-12.89-4.9c-4.48,0-7.92,1.59-10.73,5.08 c-3.28,4.07-4.45,8.72-4.45,13.9v61.68h-25.14v-60.26c0-11.75,3.2-22.86,11.37-31.54c7.47-7.94,16.99-11.99,27.81-12.88 C586.51,257.23,597.13,261.95,605.26,270.93z M405.27,260.19h27.82h20.31h4.52v59.15c0,6.01,2.05,10.88,6.34,15.11 c4.21,4.15,9.1,6.25,15.01,6.25c5.91,0,10.65-2.1,14.85-6.25c4.27-4.21,6.5-9.09,6.5-15.11v-59.15h24.83v57.73 c0,12.88-4.18,24.38-13.17,33.66c-8.94,9.23-20.18,13.63-33.01,13.63c-12.86,0-24.17-4.34-33.17-13.63 c-8.96-9.24-13.01-20.86-13.01-33.66v-26.55l13.41-7.3h-13.41h-27.82v44.5c0,10.13,4.45,13.71,14.39,13.71h11.29v22.61h-11.29 c-22.8,0-39.22-9.87-39.22-34.27v-90.94h24.83V260.19z M370.89,305.27v57.72h-24.83V304c0-6.04-2.28-10.89-6.53-15.14 c-4.2-4.2-8.87-6.37-14.82-6.37c-5.95,0-10.93,2.16-15.14,6.37c-4.26,4.26-6.37,9.11-6.37,15.14v58.99h-24.83v-28.86v-12.1v-16.76 c0-12.89,4.14-24.29,13.19-33.53c9.04-9.23,20.29-13.6,33.14-13.6c12.8,0,24.01,4.45,32.99,13.6 C366.75,280.98,370.89,292.37,370.89,305.27z M85.89,270.93c8.12-8.98,18.75-13.7,31.84-12.62c10.86,0.9,20.4,4.93,27.94,12.85 c8.23,8.64,11.55,19.79,11.55,31.57v60.26h-25.15v-61.68c0-5.14-1.36-9.88-4.61-13.9c-2.81-3.49-6.43-5.08-10.89-5.08 c-5.03,0-9.28,1.57-13.05,4.9c-3.47,3.07-4.98,6.79-4.98,11.4v64.37h-25.3v-64.37c0-4.68-1.64-8.29-5.14-11.4 c-3.71-3.29-7.91-4.9-12.89-4.9c-4.48,0-7.92,1.59-10.73,5.08c-3.28,4.07-4.45,8.72-4.45,13.9v61.68H14.88v-60.26 c0-11.75,3.2-22.86,11.37-31.54c7.47-7.94,16.99-11.99,27.81-12.88C67.14,257.23,77.76,261.95,85.89,270.93z M191.48,298.31h51.71 c-1.7-3.5-4.07-6.59-7.21-9.25c-5.28-4.47-11.43-6.45-18.33-6.57c-7.02-0.13-13.23,1.96-18.69,6.36 C195.63,291.52,193.19,294.69,191.48,298.31z"></path> </svg> 