<svg width="154" height="77" viewBox="0 0 154 77" fill="none" xmlns="http://www.w3.org/2000/svg">
<path d="M58.5866 36.1498C60.4179 31.3567 62.39 26.6336 64.9608 22.2254C68.5881 15.8929 72.9198 10.1202 78.977 5.85187C89.6124 -1.63514 101.727 -1.95002 112.75 4.97722C123.28 11.5896 130.957 20.7909 136.873 31.5316C137.824 33.2809 138.669 35.0652 139.62 36.8145C143.846 44.8613 138.106 51.6486 131.309 52.9081C126.273 53.8527 122.117 51.9285 119.617 47.4853C117.328 43.4269 115.778 39.0187 113.982 34.7154C112.715 31.6366 111.447 28.5578 109.792 25.689C106.869 20.581 102.643 17.3623 96.6558 16.8725C92.6059 16.5576 89.4364 18.6218 86.6543 21.2108C82.5339 25.0592 79.6814 29.8173 77.3571 34.8553C74.7158 40.5231 72.7789 46.4357 71.335 52.4883C69.222 61.3048 58.3401 64.9083 51.825 58.9257C50.3812 57.6312 49.6416 55.9169 48.8668 54.2376C47.0356 50.1442 45.0987 46.0858 42.1405 42.6222C37.8088 37.5143 34.9211 37.3743 30.3077 42.1674C27.0326 45.5611 24.6378 49.5844 22.4896 53.7478C20.1653 58.331 18.2988 63.0891 16.3619 67.8472C14.4954 72.4653 9.38903 74.4595 5.05739 72.5003C1.21878 70.751 -0.999867 66.3778 0.444013 62.4593C4.49392 51.4387 9.17773 40.698 17.031 31.7066C21.3979 26.7036 26.5395 22.8901 33.4068 21.9804C38.5836 21.2807 43.3026 22.5752 47.6343 25.3041C51.5081 27.7182 54.5719 31.0418 57.2484 34.6804C57.6006 35.1702 57.8471 35.7999 58.5866 36.1498Z" fill="white"/>
<path d="M141.451 53.0828C148.107 53.2578 153.39 58.7506 153.214 65.363C153.037 71.9403 147.438 77.1882 140.747 76.9783C134.056 76.8034 128.914 71.2406 129.09 64.4183C129.266 58.1208 134.936 52.9429 141.451 53.0828Z" fill="white"/>
</svg>
