<svg width="37" height="34" viewBox="0 0 37 34" fill="none" xmlns="http://www.w3.org/2000/svg">
<path d="M21.6331 32.3325C21.6331 32.9064 21.1679 33.3716 20.5942 33.3716C20.0203 33.3716 19.5551 32.9064 19.5551 32.3325V30.2535C19.5551 25.6633 15.8332 21.9417 11.2423 21.9417C6.65067 21.9417 2.92975 25.6626 2.92975 30.2535V32.3325C2.92975 32.9064 2.46456 33.3716 1.89065 33.3716C1.31706 33.3716 0.851562 32.9064 0.851562 32.3325V30.2535C0.851562 24.5148 5.50302 19.8635 11.2423 19.8635C16.9809 19.8635 21.6331 24.5155 21.6331 30.2535V32.3325ZM20.0678 19.0279C19.6515 19.4229 18.9937 19.4057 18.5988 18.9894C18.2038 18.5731 18.221 17.9155 18.6373 17.5204C20.5544 15.7012 23.092 14.6681 25.7895 14.6681C31.5279 14.6681 36.1802 19.3198 36.1802 25.057V27.137C36.1802 27.7109 35.715 28.1761 35.1411 28.1761C34.5672 28.1761 34.1021 27.7109 34.1021 27.137V25.057C34.1021 20.4676 30.3802 16.7463 25.7895 16.7463C23.6296 16.7463 21.6024 17.5715 20.0678 19.0279ZM11.2423 16.7463C8.08611 16.7463 5.52755 14.1876 5.52755 11.0313C5.52755 7.87511 8.08611 5.3164 11.2423 5.3164C14.3987 5.3164 16.9573 7.87511 16.9573 11.0313C16.9573 14.1876 14.3987 16.7463 11.2423 16.7463ZM11.2423 14.6681C13.2509 14.6681 14.8792 13.0399 14.8792 11.0313C14.8792 9.02291 13.2509 7.39459 11.2423 7.39459C9.23391 7.39459 7.60559 9.02291 7.60559 11.0313C7.60559 13.0399 9.23391 14.6681 11.2423 14.6681ZM25.7895 11.551C22.6332 11.551 20.0745 8.99225 20.0745 5.83602C20.0745 2.6798 22.6332 0.121094 25.7895 0.121094C28.9457 0.121094 31.5044 2.6798 31.5044 5.83602C31.5044 8.99225 28.9457 11.551 25.7895 11.551ZM25.7895 9.47277C27.798 9.47277 29.4262 7.84444 29.4262 5.83602C29.4262 3.82745 27.798 2.19928 25.7895 2.19928C23.7809 2.19928 22.1527 3.82745 22.1527 5.83602C22.1527 7.84444 23.7809 9.47277 25.7895 9.47277Z" fill="#8A4FFF"/>
</svg>
