<svg width="37" height="34" viewBox="0 0 37 34" fill="none" xmlns="http://www.w3.org/2000/svg">
<path fill-rule="evenodd" clip-rule="evenodd" d="M8.96202 0.121104C8.38713 0.118354 7.91909 0.659315 7.91686 1.32937V1.33181V2.74647H4.93581C2.7549 2.74647 0.970703 4.82537 0.970703 7.36686V28.7799C0.970703 31.3213 2.7549 33.41 4.93581 33.41H32.3954C34.5763 33.41 36.3688 31.3213 36.3688 28.7799V7.36686C36.3688 4.82537 34.5763 2.74647 32.3954 2.74647H29.4205V1.33181C29.4194 0.661759 28.9524 0.119729 28.3774 0.121104H28.3753C27.8027 0.123701 27.3394 0.664662 27.3382 1.33181V2.74647H10.0012V1.33181C10.0001 0.663593 9.53547 0.122174 8.96202 0.121104ZM4.93581 5.17277H7.91686V6.94506C7.91804 7.61511 8.38503 8.1573 8.96005 8.15607H8.96202C9.53547 8.1547 10.0001 7.61343 10.0012 6.94506V5.17277H27.3382V6.94506C27.3394 7.61251 27.8027 8.15332 28.3753 8.15607C28.9503 8.15867 29.4182 7.6174 29.4205 6.94766V6.94506V5.17277H32.3954C33.4588 5.17277 34.2865 6.12789 34.2865 7.36686V11.6487H3.0529V7.36686C3.0529 6.12789 3.87243 5.17277 4.93581 5.17277ZM3.0529 14.0749H34.2865V28.7799C34.2865 30.0191 33.4588 30.9835 32.3954 30.9835H4.93581C3.87243 30.9835 3.0529 30.0191 3.0529 28.7799V14.0749Z" fill="#861657"/>
</svg>
