<svg width="28" height="34" viewBox="0 0 28 34" fill="none" xmlns="http://www.w3.org/2000/svg">
<path d="M26.9236 8.34444L19.1126 0.415174C18.9272 0.226889 18.6741 0.121094 18.41 0.121094H17.8182H1.48604C0.941426 0.121094 0.5 0.56252 0.5 1.10714V32.4697C0.5 33.0143 0.941426 33.4559 1.48604 33.4559H26.2211C26.7656 33.4559 27.2073 33.0143 27.2073 32.4697V9.62824V9.03656C27.2073 8.77759 27.1053 8.52905 26.9236 8.34444ZM18.8044 2.91286L24.4482 8.6422H18.8044V2.91286ZM2.47224 31.4835V2.09333H16.832V9.62824C16.832 10.173 17.2737 10.6144 17.8182 10.6144H25.2349V31.4835H2.47224Z" fill="#3168B2"/>
<path d="M20.1847 14.7969H7.52135C6.97674 14.7969 6.53516 15.2383 6.53516 15.7831C6.53516 16.3277 6.97674 16.7693 7.52135 16.7693H20.1847C20.7293 16.7693 21.1709 16.3277 21.1709 15.7831C21.1709 15.2383 20.7293 14.7969 20.1847 14.7969Z" fill="#3168B2"/>
<path d="M20.1847 20.1211H7.52135C6.97674 20.1211 6.53516 20.5627 6.53516 21.1073C6.53516 21.6519 6.97674 22.0935 7.52135 22.0935H20.1847C20.7293 22.0935 21.1709 21.6519 21.1709 21.1073C21.1709 20.5627 20.7293 20.1211 20.1847 20.1211Z" fill="#3168B2"/>
<path d="M20.1847 25.3301H7.52135C6.97674 25.3301 6.53516 25.7717 6.53516 26.3163C6.53516 26.8609 6.97674 27.3025 7.52135 27.3025H20.1847C20.7293 27.3025 21.1709 26.8609 21.1709 26.3163C21.1709 25.7717 20.7293 25.3301 20.1847 25.3301Z" fill="#3168B2"/>
<path d="M7.52135 10.9703H11.0718C11.6165 10.9703 12.058 10.5288 12.058 9.98409C12.058 9.43947 11.6165 8.99805 11.0718 8.99805H7.52135C6.97674 8.99805 6.53516 9.43947 6.53516 9.98409C6.53516 10.5288 6.97674 10.9703 7.52135 10.9703Z" fill="#3168B2"/>
</svg>
